<svg width="18" height="22" viewBox="0 0 18 22" fill="none" xmlns="http://www.w3.org/2000/svg">
<path id="Subtract" fill-rule="evenodd" clip-rule="evenodd" d="M10.7502 2.25C10.7502 2.3304 10.7447 2.40954 10.7342 2.48706C13.4356 3.24354 15.4168 5.72374 15.4168 8.66667V11.7376H15.4166L16.8573 13.6782C17.5838 14.6569 17.1388 16.0597 15.981 16.4407C11.4466 17.9326 6.55343 17.9326 2.01907 16.4406C0.861308 16.0597 0.41631 14.6569 1.14276 13.6783L2.58329 11.7376H2.58348V8.66667C2.58348 5.72374 4.56467 3.24354 7.26607 2.48706C7.25557 2.40954 7.25015 2.3304 7.25015 2.25C7.25015 1.2835 8.03365 0.5 9.00015 0.5C9.96665 0.5 10.7502 1.2835 10.7502 2.25ZM6.93776 20.6457C6.48212 20.1901 6.19281 19.5992 6.10888 18.9675C8.02816 19.218 9.97214 19.218 11.8914 18.9674C11.8075 19.5992 11.5182 20.1901 11.0625 20.6457C10.5156 21.1927 9.7737 21.5 9.00015 21.5C8.2266 21.5 7.48474 21.1927 6.93776 20.6457Z" fill="#D9D9D9"/>
</svg>
