<svg width="28" height="28" viewBox="0 0 28 28" fill="none" xmlns="http://www.w3.org/2000/svg">
<path fill-rule="evenodd" clip-rule="evenodd" d="M10.3333 5.83341V4.66675C10.3333 4.11446 9.88554 3.66675 9.33325 3.66675C8.78097 3.66675 8.33325 4.11446 8.33325 4.66675V5.83341H6.5C4.84315 5.83341 3.5 7.17656 3.5 8.83342V11.6667H24.5V8.83341C24.5 7.17656 23.1569 5.83341 21.5 5.83341H19.6667V4.66675C19.6667 4.11446 19.219 3.66675 18.6667 3.66675C18.1145 3.66675 17.6667 4.11446 17.6667 4.66675V5.83341H10.3333ZM24.5 21.5001V11.6668H22.5V21.5001C22.5 22.0524 22.0523 22.5001 21.5 22.5001H6.5C5.94772 22.5001 5.5 22.0524 5.5 21.5001V11.6668H3.5V21.5001C3.5 23.157 4.84315 24.5001 6.5 24.5001H21.5C23.1569 24.5001 24.5 23.157 24.5 21.5001Z" fill="#787B82"/>
</svg>
