<svg width="40" height="40" viewBox="0 0 40 40" fill="none" xmlns="http://www.w3.org/2000/svg">
<g clip-path="url(#clip0_2881_4351)">
<path d="M19.9998 25.3332C22.9454 25.3332 25.3332 22.9454 25.3332 19.9998C25.3332 17.0543 22.9454 14.6665 19.9998 14.6665C17.0543 14.6665 14.6665 17.0543 14.6665 19.9998C14.6665 22.9454 17.0543 25.3332 19.9998 25.3332Z" fill="#777777"/>
<path d="M15.0002 3.3335L11.9502 6.66683H6.66683C4.8335 6.66683 3.3335 8.16683 3.3335 10.0002V30.0002C3.3335 31.8335 4.8335 33.3335 6.66683 33.3335H33.3335C35.1668 33.3335 36.6668 31.8335 36.6668 30.0002V10.0002C36.6668 8.16683 35.1668 6.66683 33.3335 6.66683H28.0502L25.0002 3.3335H15.0002ZM20.0002 28.3335C15.4002 28.3335 11.6668 24.6002 11.6668 20.0002C11.6668 15.4002 15.4002 11.6668 20.0002 11.6668C24.6002 11.6668 28.3335 15.4002 28.3335 20.0002C28.3335 24.6002 24.6002 28.3335 20.0002 28.3335Z" fill="#777777"/>
</g>
<defs>
<clipPath id="clip0_2881_4351">
<rect width="40" height="40" fill="white"/>
</clipPath>
</defs>
</svg>
