<svg width="28" height="28" viewBox="0 0 28 28" fill="none" xmlns="http://www.w3.org/2000/svg">
<path fill-rule="evenodd" clip-rule="evenodd" d="M24.5001 13.4167C24.5001 18.8935 20.0602 23.3333 14.5834 23.3333C12.7344 23.3333 11.0036 22.8273 9.52186 21.9461L4.66675 23.3333L6.05393 18.4782C5.17279 16.9965 4.66675 15.2657 4.66675 13.4167C4.66675 7.93984 9.10659 3.5 14.5834 3.5C20.0602 3.5 24.5001 7.93984 24.5001 13.4167ZM9.0835 11.4166C9.0835 10.8643 9.53121 10.4166 10.0835 10.4166H19.0835C19.6358 10.4166 20.0835 10.8643 20.0835 11.4166C20.0835 11.9689 19.6358 12.4166 19.0835 12.4166H10.0835C9.53121 12.4166 9.0835 11.9689 9.0835 11.4166ZM9.0835 15.4166C9.0835 14.8643 9.53121 14.4166 10.0835 14.4166H16.0835C16.6358 14.4166 17.0835 14.8643 17.0835 15.4166C17.0835 15.9689 16.6358 16.4166 16.0835 16.4166H10.0835C9.53121 16.4166 9.0835 15.9689 9.0835 15.4166Z" fill="#787B82"/>
</svg>
