<svg width="28" height="28" viewBox="0 0 28 28" fill="none" xmlns="http://www.w3.org/2000/svg">
<mask id="path-1-inside-1_194_12098" fill="white">
<path fill-rule="evenodd" clip-rule="evenodd" d="M16.9167 4.5C16.9167 3.94772 16.469 3.5 15.9167 3.5H12.0833C11.531 3.5 11.0833 3.94772 11.0833 4.5V4.54406C11.0833 5.43496 10.0062 5.88113 9.37623 5.25116L9.34487 5.2198C8.95434 4.82928 8.32118 4.82928 7.93065 5.2198L5.22008 7.93038C4.82955 8.3209 4.82955 8.95407 5.22008 9.34459L5.25171 9.37623C5.88168 10.0062 5.43551 11.0833 4.5446 11.0833H4.5C3.94772 11.0833 3.5 11.531 3.5 12.0833V15.9167C3.5 16.469 3.94771 16.9167 4.5 16.9167H4.54417C5.43508 16.9167 5.88125 17.9938 5.25128 18.6238L5.22009 18.655C4.82957 19.0455 4.82957 19.6786 5.22009 20.0692L7.93067 22.7797C8.32119 23.1703 8.95436 23.1703 9.34488 22.7798L9.37623 22.7484C10.0062 22.1184 11.0833 22.5646 11.0833 23.4555V23.5C11.0833 24.0523 11.531 24.5 12.0833 24.5H15.9167C16.469 24.5 16.9167 24.0523 16.9167 23.5V23.4554C16.9167 22.5645 17.9938 22.1183 18.6238 22.7483L18.6551 22.7796C19.0456 23.1701 19.6788 23.1701 20.0693 22.7796L22.7799 20.069C23.1704 19.6785 23.1704 19.0454 22.7799 18.6548L22.7488 18.6238C22.1189 17.9938 22.565 16.9167 23.4559 16.9167H23.5C24.0523 16.9167 24.5 16.4689 24.5 15.9167V12.0833C24.5 11.531 24.0523 11.0833 23.5 11.0833H23.4555C22.5646 11.0833 22.1184 10.0062 22.7484 9.37623L22.7799 9.34472C23.1704 8.9542 23.1704 8.32103 22.7799 7.93051L20.0693 5.21993C19.6788 4.82941 19.0456 4.82941 18.6551 5.21993L18.6238 5.25128C17.9938 5.88125 16.9167 5.43508 16.9167 4.54418V4.5Z"/>
</mask>
<path d="M20.0693 5.21993L21.13 4.15927L20.0693 5.21993ZM18.6551 5.21993L17.5945 4.15927L18.6551 5.21993ZM22.7799 7.93051L21.7193 8.99117L22.7799 7.93051ZM22.7484 9.37623L21.6877 8.31557L22.7484 9.37623ZM22.7799 18.6548L21.7192 19.7155L22.7799 18.6548ZM18.6551 22.7796L19.7158 21.719L18.6551 22.7796ZM18.6238 22.7483L17.5631 23.809L18.6238 22.7483ZM7.93067 22.7797L8.99133 21.7191L7.93067 22.7797ZM9.34488 22.7798L8.28422 21.7191L9.34488 22.7798ZM5.22009 18.655L6.28075 19.7156L5.22009 18.655ZM5.22009 20.0692L4.15943 21.1298L5.22009 20.0692ZM5.25128 18.6238L4.19062 17.5631L5.25128 18.6238ZM5.22008 7.93038L4.15942 6.86972L5.22008 7.93038ZM5.22008 9.34459L4.15941 10.4053L5.22008 9.34459ZM12.0833 5H15.9167V2H12.0833V5ZM12.5833 4.54406V4.5H9.58333V4.54406H12.5833ZM8.2842 6.28046L8.31557 6.31182L10.4369 4.1905L10.4055 4.15914L8.2842 6.28046ZM6.28074 8.99104L8.99131 6.28046L6.86999 4.15914L4.15942 6.86972L6.28074 8.99104ZM6.31237 8.31557L6.28074 8.28393L4.15941 10.4053L4.19105 10.4369L6.31237 8.31557ZM4.5 12.5833H4.5446V9.58333H4.5V12.5833ZM5 15.9167V12.0833H2V15.9167H5ZM4.54417 15.4167H4.5V18.4167H4.54417V15.4167ZM6.28075 19.7156L6.31194 19.6844L4.19062 17.5631L4.15943 17.5943L6.28075 19.7156ZM8.99133 21.7191L6.28075 19.0085L4.15943 21.1298L6.87001 23.8404L8.99133 21.7191ZM8.31557 21.6877L8.28422 21.7191L10.4055 23.8404L10.4369 23.8091L8.31557 21.6877ZM12.5833 23.5V23.4555H9.58333V23.5H12.5833ZM15.9167 23H12.0833V26H15.9167V23ZM15.4167 23.4554V23.5H18.4167V23.4554H15.4167ZM19.7158 21.719L19.6844 21.6876L17.5631 23.809L17.5944 23.8403L19.7158 21.719ZM21.7192 19.0084L19.0087 21.719L21.13 23.8403L23.8406 21.1297L21.7192 19.0084ZM21.6882 19.6844L21.7192 19.7155L23.8406 17.5942L23.8095 17.5631L21.6882 19.6844ZM23.5 15.4167H23.4559V18.4167H23.5V15.4167ZM23 12.0833V15.9167H26V12.0833H23ZM23.4555 12.5833H23.5V9.58333H23.4555V12.5833ZM21.7193 8.28406L21.6877 8.31557L23.8091 10.4369L23.8406 10.4054L21.7193 8.28406ZM19.0087 6.28059L21.7193 8.99117L23.8406 6.86985L21.13 4.15927L19.0087 6.28059ZM19.6844 6.31194L19.7158 6.28059L17.5945 4.15927L17.5631 4.19062L19.6844 6.31194ZM15.4167 4.5V4.54418H18.4167V4.5H15.4167ZM17.5631 4.19062C17.8781 3.87564 18.4167 4.09872 18.4167 4.54418H15.4167C15.4167 6.77144 18.1095 7.88685 19.6844 6.31194L17.5631 4.19062ZM21.13 4.15927C20.1537 3.18296 18.5708 3.18296 17.5945 4.15927L19.7158 6.28059C19.5205 6.47585 19.2039 6.47585 19.0087 6.28059L21.13 4.15927ZM23.8406 10.4054C24.8169 9.42907 24.8169 7.84616 23.8406 6.86985L21.7193 8.99117C21.524 8.79591 21.524 8.47932 21.7193 8.28406L23.8406 10.4054ZM23.4555 9.58333C23.901 9.58333 24.124 10.1219 23.8091 10.4369L21.6877 8.31557C20.1128 9.89048 21.2283 12.5833 23.4555 12.5833V9.58333ZM26 12.0833C26 10.7026 24.8807 9.58333 23.5 9.58333V12.5833C23.2239 12.5833 23 12.3595 23 12.0833H26ZM23.5 18.4167C24.8807 18.4167 26 17.2974 26 15.9167H23C23 15.6405 23.2239 15.4167 23.5 15.4167V18.4167ZM23.8095 17.5631C24.1245 17.8781 23.9014 18.4167 23.4559 18.4167V15.4167C21.2287 15.4167 20.1133 18.1095 21.6882 19.6844L23.8095 17.5631ZM23.8406 21.1297C24.8169 20.1534 24.8169 18.5705 23.8406 17.5942L21.7192 19.7155C21.524 19.5202 21.524 19.2036 21.7192 19.0084L23.8406 21.1297ZM17.5944 23.8403C18.5708 24.8166 20.1537 24.8166 21.13 23.8403L19.0087 21.719C19.2039 21.5237 19.5205 21.5237 19.7158 21.719L17.5944 23.8403ZM18.4167 23.4554C18.4167 23.9009 17.8781 24.1239 17.5631 23.809L19.6844 21.6876C18.1095 20.1127 15.4167 21.2281 15.4167 23.4554H18.4167ZM15.9167 26C17.2974 26 18.4167 24.8807 18.4167 23.5H15.4167C15.4167 23.2239 15.6405 23 15.9167 23V26ZM9.58333 23.5C9.58333 24.8807 10.7026 26 12.0833 26V23C12.3595 23 12.5833 23.2239 12.5833 23.5H9.58333ZM10.4369 23.8091C10.1219 24.124 9.58333 23.901 9.58333 23.4555H12.5833C12.5833 21.2282 9.89048 20.1128 8.31557 21.6877L10.4369 23.8091ZM6.87001 23.8404C7.84632 24.8167 9.42923 24.8167 10.4055 23.8404L8.28422 21.7191C8.47949 21.5238 8.79607 21.5238 8.99133 21.7191L6.87001 23.8404ZM4.15943 17.5943C3.18312 18.5706 3.18313 20.1535 4.15943 21.1298L6.28075 19.0085C6.47602 19.2038 6.47602 19.5204 6.28075 19.7156L4.15943 17.5943ZM4.54417 18.4167C4.09872 18.4167 3.87564 17.8781 4.19062 17.5631L6.31194 19.6844C7.88685 18.1095 6.77144 15.4167 4.54417 15.4167V18.4167ZM2 15.9167C2 17.2974 3.11929 18.4167 4.5 18.4167V15.4167C4.77614 15.4167 5 15.6405 5 15.9167H2ZM4.5 9.58333C3.11929 9.58333 2 10.7026 2 12.0833H5C5 12.3595 4.77614 12.5833 4.5 12.5833V9.58333ZM4.19105 10.4369C3.87607 10.1219 4.09915 9.58333 4.5446 9.58333V12.5833C6.77186 12.5833 7.88729 9.89048 6.31237 8.31557L4.19105 10.4369ZM4.15942 6.86972C3.18311 7.84603 3.1831 9.42894 4.15941 10.4053L6.28074 8.28393C6.476 8.47919 6.476 8.79578 6.28074 8.99104L4.15942 6.86972ZM10.4055 4.15914C9.42921 3.18283 7.8463 3.18283 6.86999 4.15914L8.99131 6.28046C8.79605 6.47572 8.47947 6.47573 8.2842 6.28046L10.4055 4.15914ZM9.58333 4.54406C9.58333 4.0986 10.1219 3.87552 10.4369 4.1905L8.31557 6.31182C9.89048 7.88674 12.5833 6.77132 12.5833 4.54406H9.58333ZM15.9167 5C15.6405 5 15.4167 4.77614 15.4167 4.5H18.4167C18.4167 3.11929 17.2974 2 15.9167 2V5ZM12.0833 2C10.7026 2 9.58333 3.11929 9.58333 4.5H12.5833C12.5833 4.77614 12.3595 5 12.0833 5V2Z" fill="#EDEDED" mask="url(#path-1-inside-1_194_12098)"/>
<circle cx="14.0002" cy="14" r="3.91667" stroke="#EDEDED" stroke-width="1.5"/>
</svg>
