<svg width="121" height="120" viewBox="0 0 121 120" fill="none" xmlns="http://www.w3.org/2000/svg">
<g filter="url(#filter0_ii_1787_14325)">
<path d="M5.1061 73.3972C-6.59477 49.2306 6.73123 27.8289 14.8568 20.1488C51.1249 -14.1304 98.7919 4.32591 109.154 10.6769C120.212 17.4552 121.182 21.5013 120.212 25.909C118.72 32.6929 103.26 49.277 96.3378 50.6107C89.7987 51.8705 90.2691 37.9542 79.9014 32.6929C69.5337 27.4317 56.2381 32.5649 50.0547 38.453C34.2395 55.3491 44.7037 71.6052 50.0547 75.7012C55.4057 79.7972 60.7871 82.9107 78.5439 81.0044C92.8743 79.4659 97.2244 82.0353 96.4381 89.9337C98.2453 91.9734 101.46 94.1806 101.214 97.7735C100.967 101.366 97.1998 100.063 98.0545 104.362C99.3577 110.918 92.5978 107.374 92.5978 111.332C92.5978 118.97 87.0201 115.108 85.6666 118.009C83.0405 123.638 70.0308 115.865 65.807 112.715C61.5833 109.565 61.24 109.097 53.8602 106.441C35.7283 99.9145 39.7887 101.685 31.1478 97.9734C25.2815 95.2 11.8603 86.4021 5.1061 73.3972Z" fill="url(#paint0_radial_1787_14325)"/>
</g>
<defs>
<filter id="filter0_ii_1787_14325" x="0.5" y="-4" width="120" height="128" filterUnits="userSpaceOnUse" color-interpolation-filters="sRGB">
<feFlood flood-opacity="0" result="BackgroundImageFix"/>
<feBlend mode="normal" in="SourceGraphic" in2="BackgroundImageFix" result="shape"/>
<feColorMatrix in="SourceAlpha" type="matrix" values="0 0 0 0 0 0 0 0 0 0 0 0 0 0 0 0 0 0 127 0" result="hardAlpha"/>
<feOffset dy="4"/>
<feGaussianBlur stdDeviation="2"/>
<feComposite in2="hardAlpha" operator="arithmetic" k2="-1" k3="1"/>
<feColorMatrix type="matrix" values="0 0 0 0 1 0 0 0 0 1 0 0 0 0 1 0 0 0 0.25 0"/>
<feBlend mode="normal" in2="shape" result="effect1_innerShadow_1787_14325"/>
<feColorMatrix in="SourceAlpha" type="matrix" values="0 0 0 0 0 0 0 0 0 0 0 0 0 0 0 0 0 0 127 0" result="hardAlpha"/>
<feOffset dy="-4"/>
<feGaussianBlur stdDeviation="2"/>
<feComposite in2="hardAlpha" operator="arithmetic" k2="-1" k3="1"/>
<feColorMatrix type="matrix" values="0 0 0 0 0 0 0 0 0 0 0 0 0 0 0 0 0 0 0.1 0"/>
<feBlend mode="normal" in2="effect1_innerShadow_1787_14325" result="effect2_innerShadow_1787_14325"/>
</filter>
<radialGradient id="paint0_radial_1787_14325" cx="0" cy="0" r="1" gradientUnits="userSpaceOnUse" gradientTransform="translate(72.406 54.6617) rotate(-140.44) scale(119.014)">
<stop stop-color="#0066C2"/>
<stop offset="0.391601" stop-color="#198DF7"/>
</radialGradient>
</defs>
</svg>
