<svg width="28" height="28" viewBox="0 0 28 28" fill="none" xmlns="http://www.w3.org/2000/svg">
<rect width="28" height="28" fill="#1E1E1E"/>
<g id="&#236;&#187;&#180;&#237;&#143;&#172;&#235;&#132;&#140;&#237;&#138;&#184;">
<path d="M-1851 -763C-1851 -764.105 -1850.1 -765 -1849 -765H2951C2952.1 -765 2953 -764.105 2953 -763V1178C2953 1179.1 2952.1 1180 2951 1180H-1849C-1850.1 1180 -1851 1179.1 -1851 1178V-763Z" fill="#444444"/>
<path d="M-1849 -764H2951V-766H-1849V-764ZM2952 -763V1178H2954V-763H2952ZM2951 1179H-1849V1181H2951V1179ZM-1850 1178V-763H-1852V1178H-1850ZM-1849 1179C-1849.55 1179 -1850 1178.55 -1850 1178H-1852C-1852 1179.66 -1850.66 1181 -1849 1181V1179ZM2952 1178C2952 1178.55 2951.55 1179 2951 1179V1181C2952.66 1181 2954 1179.66 2954 1178H2952ZM2951 -764C2951.55 -764 2952 -763.552 2952 -763H2954C2954 -764.657 2952.66 -766 2951 -766V-764ZM-1849 -766C-1850.66 -766 -1852 -764.657 -1852 -763H-1850C-1850 -763.552 -1849.55 -764 -1849 -764V-766Z" fill="white" fill-opacity="0.1"/>
<g id="icon28x">
<rect x="-281.5" y="-17.5" width="429" height="63" rx="4.5" stroke="#9747FF" stroke-dasharray="10 5"/>
<g id="Name=heart-on">
<path id="Vector 116 (Stroke)" fill-rule="evenodd" clip-rule="evenodd" d="M5.20854 6.37529C7.4866 4.09723 11.1801 4.09723 13.4581 6.37529L14 6.91717L14.5419 6.37529C16.8199 4.09723 20.5134 4.09723 22.7915 6.37529C25.0695 8.65335 25.0695 12.3468 22.7915 14.6249L14 23.4163L5.20854 14.6249C2.93049 12.3468 2.93049 8.65335 5.20854 6.37529Z" fill="#EB4141"/>
</g>
</g>
</g>
</svg>
