<svg width="28" height="28" viewBox="0 0 28 28" fill="none" xmlns="http://www.w3.org/2000/svg">
<path d="M9.5 24.5002H6.5C4.84315 24.5002 3.5 23.157 3.5 21.5002V11.9674C3.5 11.0416 3.92742 10.1677 4.65818 9.59936L12.1582 3.76602C13.2415 2.92343 14.7585 2.92343 15.8418 3.76603L23.3418 9.59936C24.0726 10.1677 24.5 11.0416 24.5 11.9674V21.5002C24.5 23.157 23.1569 24.5002 21.5 24.5002H18.5C17.9477 24.5002 17.5 24.0524 17.5 23.5002V16.1668C17.5 15.6145 17.0523 15.1668 16.5 15.1668H11.5C10.9477 15.1668 10.5 15.6145 10.5 16.1668V23.5002C10.5 24.0524 10.0523 24.5002 9.5 24.5002Z" fill="#787B82"/>
</svg>
