<svg width="138" height="25" viewBox="0 0 138 25" fill="none" xmlns="http://www.w3.org/2000/svg">
<path d="M127.702 11.9202C127.649 11.7602 127.622 11.6468 127.622 11.5802C127.622 11.2602 127.802 10.9868 128.162 10.7602C128.522 10.5335 128.996 10.4202 129.582 10.4202C130.009 10.4202 130.329 10.4802 130.542 10.6002C130.756 10.7068 130.902 10.8735 130.982 11.1002L132.482 15.7602L134.162 11.1002C134.322 10.6468 134.762 10.4202 135.482 10.4202C136.056 10.4202 136.522 10.5335 136.882 10.7602C137.242 10.9735 137.422 11.2468 137.422 11.5802C137.422 11.6468 137.396 11.7602 137.342 11.9202L132.602 23.5402C132.522 23.7268 132.409 23.8668 132.262 23.9602C132.129 24.0668 131.929 24.1202 131.662 24.1202C131.116 24.1202 130.669 24.0335 130.322 23.8602C129.989 23.7002 129.822 23.4868 129.822 23.2202C129.822 23.1802 129.836 23.1068 129.862 23.0002L131.062 19.6602L127.702 11.9202Z" fill="url(#paint0_linear_1894_20155)"/>
<path d="M116.177 15.3202C116.177 14.2935 116.37 13.3935 116.757 12.6202C117.157 11.8468 117.697 11.2535 118.377 10.8402C119.057 10.4268 119.81 10.2202 120.637 10.2202C121.117 10.2202 121.557 10.3002 121.957 10.4602C122.237 10.5802 122.463 10.7068 122.637 10.8402V7.14017C122.637 6.46017 123.237 6.12017 124.437 6.12017C125.637 6.12017 126.237 6.46017 126.237 7.14017V19.1002C126.237 19.7802 125.637 20.1202 124.437 20.1202C123.73 20.1202 123.23 20.0068 122.937 19.7802C122.777 19.9268 122.537 20.0535 122.217 20.1602C121.883 20.2668 121.503 20.3202 121.077 20.3202C120.13 20.3202 119.283 20.1268 118.537 19.7402C117.803 19.3402 117.223 18.7668 116.797 18.0202C116.383 17.2602 116.177 16.3602 116.177 15.3202ZM121.457 11.9002C120.91 11.9002 120.49 12.1935 120.197 12.7802C119.917 13.3668 119.777 14.1935 119.777 15.2602C119.777 17.5135 120.43 18.6402 121.737 18.6402C121.923 18.6402 122.117 18.6135 122.317 18.5602C122.423 18.5335 122.53 18.5002 122.637 18.4602V12.5402C122.277 12.1135 121.883 11.9002 121.457 11.9002Z" fill="url(#paint1_linear_1894_20155)"/>
<path d="M104.411 15.3202C104.411 14.2802 104.624 13.3802 105.051 12.6202C105.491 11.8468 106.104 11.2535 106.891 10.8402C107.678 10.4268 108.591 10.2202 109.631 10.2202C111.218 10.2202 112.471 10.6602 113.391 11.5402C114.311 12.4202 114.771 13.6402 114.771 15.2002C114.771 16.2402 114.551 17.1468 114.111 17.9202C113.684 18.6935 113.078 19.2868 112.291 19.7002C111.504 20.1135 110.591 20.3202 109.551 20.3202C107.964 20.3202 106.711 19.8802 105.791 19.0002C104.871 18.1202 104.411 16.8935 104.411 15.3202ZM111.171 15.2602C111.171 14.1935 111.031 13.3668 110.751 12.7802C110.471 12.1935 110.084 11.9002 109.591 11.9002C109.098 11.9002 108.711 12.1935 108.431 12.7802C108.151 13.3668 108.011 14.1935 108.011 15.2602C108.011 16.3268 108.151 17.1602 108.431 17.7602C108.711 18.3468 109.098 18.6402 109.591 18.6402C110.084 18.6402 110.471 18.3468 110.751 17.7602C111.031 17.1602 111.171 16.3268 111.171 15.2602Z" fill="url(#paint2_linear_1894_20155)"/>
<path d="M92.9643 20.0002C91.7643 20.0002 91.1643 19.6602 91.1643 18.9802V7.26017C91.1643 6.58017 91.7643 6.24017 92.9643 6.24017H97.7243C99.2443 6.24017 100.431 6.52683 101.284 7.10017C102.138 7.66017 102.564 8.52683 102.564 9.70017C102.564 10.9135 102.124 11.8735 101.244 12.5802C101.044 12.7402 100.824 12.8868 100.584 13.0202C101.251 13.1535 101.778 13.4402 102.164 13.8802C102.658 14.4402 102.904 15.1735 102.904 16.0802C102.904 17.3335 102.384 18.3002 101.344 18.9802C100.304 19.6602 98.8976 20.0002 97.1243 20.0002H92.9643ZM96.7243 18.2402C98.4443 18.2402 99.3043 17.4535 99.3043 15.8802C99.3043 15.1335 99.1109 14.5735 98.7243 14.2002C98.3509 13.8268 97.8176 13.6402 97.1243 13.6402H94.7643V18.2402H96.7243ZM97.0643 11.8802C97.6509 11.8802 98.1109 11.7002 98.4443 11.3402C98.7909 10.9668 98.9643 10.4602 98.9643 9.82017C98.9643 9.1535 98.8043 8.68683 98.4843 8.42017C98.1643 8.14017 97.6909 8.00017 97.0643 8.00017H94.7643V11.8802H97.0643Z" fill="url(#paint3_linear_1894_20155)"/>
<path d="M78.3346 17.3002V12.3002H77.5146C76.9946 12.3002 76.7346 12.0068 76.7346 11.4202C76.7346 10.8335 76.9946 10.5402 77.5146 10.5402H78.3346V8.34017C78.3346 7.66017 78.9346 7.32017 80.1346 7.32017C81.3346 7.32017 81.9346 7.66017 81.9346 8.34017V10.5402H83.3746C83.8946 10.5402 84.1546 10.8335 84.1546 11.4202C84.1546 12.0068 83.8946 12.3002 83.3746 12.3002H81.9346V17.8802C81.9346 18.1335 81.9812 18.3135 82.0746 18.4202C82.1679 18.5135 82.3079 18.5602 82.4946 18.5602C82.6412 18.5602 82.7879 18.5202 82.9346 18.4402C83.0812 18.3468 83.1679 18.3002 83.1946 18.3002C83.3679 18.3002 83.5346 18.4002 83.6946 18.6002C83.8679 18.8002 83.9546 19.0268 83.9546 19.2802C83.9546 19.6268 83.7879 19.8868 83.4546 20.0602C83.1212 20.2335 82.6412 20.3202 82.0146 20.3202C80.7879 20.3202 79.8679 20.0668 79.2546 19.5602C78.6412 19.0402 78.3346 18.2868 78.3346 17.3002Z" fill="url(#paint4_linear_1894_20155)"/>
<path d="M71.9346 19.1002V11.4402C71.9346 10.7602 72.5346 10.4202 73.7346 10.4202C74.9346 10.4202 75.5346 10.7602 75.5346 11.4402V19.1002C75.5346 19.7802 74.9346 20.1202 73.7346 20.1202C72.5346 20.1202 71.9346 19.7802 71.9346 19.1002ZM71.9346 7.72017C71.9346 7.22683 72.1079 6.80683 72.4546 6.46017C72.8146 6.10017 73.2412 5.92017 73.7346 5.92017C74.2412 5.92017 74.6679 6.0935 75.0146 6.44017C75.3612 6.78683 75.5346 7.2135 75.5346 7.72017C75.5346 8.2135 75.3546 8.64017 74.9946 9.00017C74.6479 9.34683 74.2279 9.52017 73.7346 9.52017C73.2412 9.52017 72.8146 9.34683 72.4546 9.00017C72.1079 8.64017 71.9346 8.2135 71.9346 7.72017Z" fill="url(#paint5_linear_1894_20155)"/>
<path d="M60.3439 19.0802V13.8202C60.3439 12.5935 59.9506 11.9802 59.1639 11.9802C58.8306 11.9802 58.5439 12.0735 58.3039 12.2602C58.1706 12.3535 58.0506 12.4668 57.9439 12.6002V19.0802C57.9439 19.7602 57.3439 20.1002 56.1439 20.1002C54.9439 20.1002 54.3439 19.7602 54.3439 19.0802V11.4602C54.3439 10.7802 54.9439 10.4402 56.1439 10.4402C57.0373 10.4402 57.5973 10.6268 57.8239 11.0002C58.0239 10.8268 58.3106 10.6602 58.6839 10.5002C59.1373 10.3135 59.6639 10.2202 60.2639 10.2202C61.4506 10.2202 62.3573 10.4935 62.9839 11.0402C63.1173 11.1602 63.2373 11.2868 63.3439 11.4202C63.5573 11.1535 63.8906 10.9002 64.3439 10.6602C64.9039 10.3668 65.5439 10.2202 66.2639 10.2202C67.4639 10.2202 68.3773 10.5268 69.0039 11.1402C69.6306 11.7535 69.9439 12.7402 69.9439 14.1002V19.0802C69.9439 19.7602 69.3439 20.1002 68.1439 20.1002C66.9439 20.1002 66.3439 19.7602 66.3439 19.0802V13.9002C66.3439 13.2735 66.2506 12.8002 66.0639 12.4802C65.8906 12.1468 65.5973 11.9802 65.1839 11.9802C64.8906 11.9802 64.6106 12.0802 64.3439 12.2802C64.1706 12.4135 64.0173 12.5668 63.8839 12.7402C63.9239 12.9802 63.9439 13.2335 63.9439 13.5002V19.0802C63.9439 19.7602 63.3439 20.1002 62.1439 20.1002C60.9439 20.1002 60.3439 19.7602 60.3439 19.0802Z" fill="url(#paint6_linear_1894_20155)"/>
<path d="M42.9533 19.0802V13.8202C42.9533 12.5935 42.56 11.9802 41.7733 11.9802C41.44 11.9802 41.1533 12.0735 40.9133 12.2602C40.78 12.3535 40.66 12.4668 40.5533 12.6002V19.0802C40.5533 19.7602 39.9533 20.1002 38.7533 20.1002C37.5533 20.1002 36.9533 19.7602 36.9533 19.0802V11.4602C36.9533 10.7802 37.5533 10.4402 38.7533 10.4402C39.6467 10.4402 40.2067 10.6268 40.4333 11.0002C40.6333 10.8268 40.92 10.6602 41.2933 10.5002C41.7467 10.3135 42.2733 10.2202 42.8733 10.2202C44.06 10.2202 44.9667 10.4935 45.5933 11.0402C45.7267 11.1602 45.8467 11.2868 45.9533 11.4202C46.1667 11.1535 46.5 10.9002 46.9533 10.6602C47.5133 10.3668 48.1533 10.2202 48.8733 10.2202C50.0733 10.2202 50.9867 10.5268 51.6133 11.1402C52.24 11.7535 52.5533 12.7402 52.5533 14.1002V19.0802C52.5533 19.7602 51.9533 20.1002 50.7533 20.1002C49.5533 20.1002 48.9533 19.7602 48.9533 19.0802V13.9002C48.9533 13.2735 48.86 12.8002 48.6733 12.4802C48.5 12.1468 48.2067 11.9802 47.7933 11.9802C47.5 11.9802 47.22 12.0802 46.9533 12.2802C46.78 12.4135 46.6267 12.5668 46.4933 12.7402C46.5333 12.9802 46.5533 13.2335 46.5533 13.5002V19.0802C46.5533 19.7602 45.9533 20.1002 44.7533 20.1002C43.5533 20.1002 42.9533 19.7602 42.9533 19.0802Z" fill="url(#paint7_linear_1894_20155)"/>
<path d="M24.8877 15.3202C24.8877 14.2802 25.101 13.3802 25.5277 12.6202C25.9677 11.8468 26.581 11.2535 27.3677 10.8402C28.1544 10.4268 29.0677 10.2202 30.1077 10.2202C31.6944 10.2202 32.9477 10.6602 33.8677 11.5402C34.7877 12.4202 35.2477 13.6402 35.2477 15.2002C35.2477 16.2402 35.0277 17.1468 34.5877 17.9202C34.161 18.6935 33.5544 19.2868 32.7677 19.7002C31.981 20.1135 31.0677 20.3202 30.0277 20.3202C28.441 20.3202 27.1877 19.8802 26.2677 19.0002C25.3477 18.1202 24.8877 16.8935 24.8877 15.3202ZM31.6477 15.2602C31.6477 14.1935 31.5077 13.3668 31.2277 12.7802C30.9477 12.1935 30.561 11.9002 30.0677 11.9002C29.5744 11.9002 29.1877 12.1935 28.9077 12.7802C28.6277 13.3668 28.4877 14.1935 28.4877 15.2602C28.4877 16.3268 28.6277 17.1602 28.9077 17.7602C29.1877 18.3468 29.5744 18.6402 30.0677 18.6402C30.561 18.6402 30.9477 18.3468 31.2277 17.7602C31.5077 17.1602 31.6477 16.3268 31.6477 15.2602Z" fill="url(#paint8_linear_1894_20155)"/>
<g filter="url(#filter0_ii_1894_20155)">
<path d="M0.921221 15.5583C-1.41895 10.725 1.24624 6.44468 2.87137 4.90867C10.125 -1.94717 19.6584 1.74409 21.7307 3.01429C23.9425 4.36994 24.1364 5.17916 23.9425 6.0607C23.6439 7.41749 20.552 10.7343 19.1676 11.001C17.8597 11.253 17.9538 8.46974 15.8803 7.41749C13.8067 6.36524 11.1476 7.39189 9.91093 8.5695C6.74789 11.9487 8.84073 15.1999 9.91093 16.0191C10.9811 16.8384 12.0574 17.461 15.6088 17.0798C18.4749 16.7721 19.3449 17.286 19.1876 18.8657C19.5491 19.2736 20.1921 19.715 20.1427 20.4336C20.0934 21.1522 19.34 20.8914 19.5109 21.7514C19.7715 23.0625 18.4196 22.3536 18.4196 23.1454C18.4196 24.6728 17.304 23.9006 17.0333 24.4808C16.5081 25.6065 13.9062 24.052 13.0614 23.4219C12.2167 22.7919 12.148 22.6983 10.672 22.167C7.04566 20.8618 7.85773 21.216 6.12955 20.4736C4.95629 19.9189 2.27207 18.1593 0.921221 15.5583Z" fill="url(#paint9_radial_1894_20155)"/>
</g>
<defs>
<filter id="filter0_ii_1894_20155" x="0" y="-2.1514" width="24" height="30.0606" filterUnits="userSpaceOnUse" color-interpolation-filters="sRGB">
<feFlood flood-opacity="0" result="BackgroundImageFix"/>
<feBlend mode="normal" in="SourceGraphic" in2="BackgroundImageFix" result="shape"/>
<feColorMatrix in="SourceAlpha" type="matrix" values="0 0 0 0 0 0 0 0 0 0 0 0 0 0 0 0 0 0 127 0" result="hardAlpha"/>
<feOffset dy="3.0303"/>
<feGaussianBlur stdDeviation="1.51515"/>
<feComposite in2="hardAlpha" operator="arithmetic" k2="-1" k3="1"/>
<feColorMatrix type="matrix" values="0 0 0 0 1 0 0 0 0 1 0 0 0 0 1 0 0 0 0.25 0"/>
<feBlend mode="normal" in2="shape" result="effect1_innerShadow_1894_20155"/>
<feColorMatrix in="SourceAlpha" type="matrix" values="0 0 0 0 0 0 0 0 0 0 0 0 0 0 0 0 0 0 127 0" result="hardAlpha"/>
<feOffset dy="-3.0303"/>
<feGaussianBlur stdDeviation="1.51515"/>
<feComposite in2="hardAlpha" operator="arithmetic" k2="-1" k3="1"/>
<feColorMatrix type="matrix" values="0 0 0 0 0 0 0 0 0 0 0 0 0 0 0 0 0 0 0.1 0"/>
<feBlend mode="normal" in2="effect1_innerShadow_1894_20155" result="effect2_innerShadow_1894_20155"/>
</filter>
<linearGradient id="paint0_linear_1894_20155" x1="24.8877" y1="15.0202" x2="137.422" y2="15.0202" gradientUnits="userSpaceOnUse">
<stop stop-color="#49A5F9"/>
<stop offset="1" stop-color="#198DF7"/>
</linearGradient>
<linearGradient id="paint1_linear_1894_20155" x1="24.8877" y1="15.0202" x2="137.422" y2="15.0202" gradientUnits="userSpaceOnUse">
<stop stop-color="#49A5F9"/>
<stop offset="1" stop-color="#198DF7"/>
</linearGradient>
<linearGradient id="paint2_linear_1894_20155" x1="24.8877" y1="15.0202" x2="137.422" y2="15.0202" gradientUnits="userSpaceOnUse">
<stop stop-color="#49A5F9"/>
<stop offset="1" stop-color="#198DF7"/>
</linearGradient>
<linearGradient id="paint3_linear_1894_20155" x1="24.8877" y1="15.0202" x2="137.422" y2="15.0202" gradientUnits="userSpaceOnUse">
<stop stop-color="#49A5F9"/>
<stop offset="1" stop-color="#198DF7"/>
</linearGradient>
<linearGradient id="paint4_linear_1894_20155" x1="24.8877" y1="15.0202" x2="137.422" y2="15.0202" gradientUnits="userSpaceOnUse">
<stop stop-color="#49A5F9"/>
<stop offset="1" stop-color="#198DF7"/>
</linearGradient>
<linearGradient id="paint5_linear_1894_20155" x1="24.8877" y1="15.0202" x2="137.422" y2="15.0202" gradientUnits="userSpaceOnUse">
<stop stop-color="#49A5F9"/>
<stop offset="1" stop-color="#198DF7"/>
</linearGradient>
<linearGradient id="paint6_linear_1894_20155" x1="24.8877" y1="15.0202" x2="137.422" y2="15.0202" gradientUnits="userSpaceOnUse">
<stop stop-color="#49A5F9"/>
<stop offset="1" stop-color="#198DF7"/>
</linearGradient>
<linearGradient id="paint7_linear_1894_20155" x1="24.8877" y1="15.0202" x2="137.422" y2="15.0202" gradientUnits="userSpaceOnUse">
<stop stop-color="#49A5F9"/>
<stop offset="1" stop-color="#198DF7"/>
</linearGradient>
<linearGradient id="paint8_linear_1894_20155" x1="24.8877" y1="15.0202" x2="137.422" y2="15.0202" gradientUnits="userSpaceOnUse">
<stop stop-color="#49A5F9"/>
<stop offset="1" stop-color="#198DF7"/>
</linearGradient>
<radialGradient id="paint9_radial_1894_20155" cx="0" cy="0" r="1" gradientUnits="userSpaceOnUse" gradientTransform="translate(14.3812 11.8113) rotate(-140.44) scale(23.8028)">
<stop stop-color="#0066C2"/>
<stop offset="0.391601" stop-color="#198DF7"/>
</radialGradient>
</defs>
</svg>
