<svg width="152" height="96" viewBox="0 0 152 96" fill="none" xmlns="http://www.w3.org/2000/svg">
<path fill-rule="evenodd" clip-rule="evenodd" d="M76.1875 24C69.4565 24 64 29.4565 64 36.1875C64 42.9185 69.4565 48.375 76.1875 48.375C82.9185 48.375 88.375 42.9185 88.375 36.1875C88.375 29.4565 82.9185 24 76.1875 24ZM58 36.1875C58 26.1428 66.1428 18 76.1875 18C86.2322 18 94.375 26.1428 94.375 36.1875C94.375 45.2103 87.8047 52.6985 79.1875 54.1287V63.5625H84.625C86.2819 63.5625 87.625 64.9056 87.625 66.5625C87.625 68.2194 86.2819 69.5625 84.625 69.5625H79.1875V75C79.1875 76.6569 77.8444 78 76.1875 78C74.5306 78 73.1875 76.6569 73.1875 75V69.5625H67.75C66.0931 69.5625 64.75 68.2194 64.75 66.5625C64.75 64.9056 66.0931 63.5625 67.75 63.5625H73.1875V54.1287C64.5703 52.6985 58 45.2103 58 36.1875Z" fill="#4AA6DC"/>
</svg>
