<svg width="16" height="16" viewBox="0 0 16 16" fill="none" xmlns="http://www.w3.org/2000/svg">
<mask id="path-1-inside-1_2881_5809" fill="white">
<path fill-rule="evenodd" clip-rule="evenodd" d="M3.99967 2.6665C2.52692 2.6665 1.33301 3.86041 1.33301 5.33317V8.6665C1.33301 10.1393 2.52692 11.3332 3.99968 11.3332H7.46644L9.57288 13.0885C10.0071 13.4504 10.6663 13.1416 10.6663 12.5764V10.9764C11.4634 10.5153 11.9997 9.65355 11.9997 8.6665V5.33317C11.9997 3.86041 10.8058 2.6665 9.33301 2.6665H3.99967Z"/>
</mask>
<path d="M7.46644 11.3332L7.89323 10.821C7.77342 10.7212 7.62239 10.6665 7.46644 10.6665V11.3332ZM9.57288 13.0885L9.14609 13.6007H9.14609L9.57288 13.0885ZM10.6663 10.9764L10.3325 10.3993C10.1265 10.5185 9.99967 10.7384 9.99967 10.9764H10.6663ZM1.99967 5.33317C1.99967 4.2286 2.89511 3.33317 3.99967 3.33317V1.99984C2.15873 1.99984 0.666341 3.49222 0.666341 5.33317H1.99967ZM1.99967 8.6665V5.33317H0.666341V8.6665H1.99967ZM3.99968 10.6665C2.89511 10.6665 1.99967 9.77107 1.99967 8.6665H0.666341C0.666341 10.5075 2.15873 11.9998 3.99968 11.9998V10.6665ZM7.46644 10.6665H3.99968V11.9998H7.46644V10.6665ZM7.03965 11.8453L9.14609 13.6007L9.99967 12.5764L7.89323 10.821L7.03965 11.8453ZM9.14609 13.6007C10.0145 14.3244 11.333 13.7068 11.333 12.5764H9.99967V12.5764L9.14609 13.6007ZM11.333 12.5764V10.9764H9.99967V12.5764H11.333ZM11.333 8.6665C11.333 9.40595 10.9321 10.0525 10.3325 10.3993L11.0002 11.5535C11.9948 10.9781 12.6663 9.90115 12.6663 8.6665H11.333ZM11.333 5.33317V8.6665H12.6663V5.33317H11.333ZM9.33301 3.33317C10.4376 3.33317 11.333 4.2286 11.333 5.33317H12.6663C12.6663 3.49222 11.174 1.99984 9.33301 1.99984V3.33317ZM3.99967 3.33317H9.33301V1.99984H3.99967V3.33317Z" fill="#999999" mask="url(#path-1-inside-1_2881_5809)"/>
</svg>
