<svg width="152" height="96" viewBox="0 0 152 96" fill="none" xmlns="http://www.w3.org/2000/svg">
<path fill-rule="evenodd" clip-rule="evenodd" d="M75.0392 18.2276C74.6853 18.374 74.3538 18.591 74.0662 18.8787L65.6287 27.3161C64.4571 28.4877 64.4571 30.3872 65.6287 31.5588C66.8002 32.7303 68.6997 32.7303 69.8713 31.5588L73.1875 28.2426L73.1875 41.8713C64.5703 43.3015 58 50.7897 58 59.8125C58 69.8572 66.1428 78 76.1875 78C86.2322 78 94.375 69.8572 94.375 59.8125C94.375 50.7897 87.8047 43.3015 79.1875 41.8713L79.1875 28.2426L82.5037 31.5588C83.6753 32.7303 85.5748 32.7303 86.7463 31.5588C87.9179 30.3872 87.9179 28.4877 86.7463 27.3161L78.3088 18.8787C77.7284 18.2983 76.9694 18.0054 76.2088 18.0001C76.1946 18 76.1804 18 76.1662 18.0001C75.7672 18.0028 75.3867 18.0835 75.0392 18.2276ZM76.1875 72C82.9185 72 88.375 66.5435 88.375 59.8125C88.375 53.0815 82.9185 47.625 76.1875 47.625C69.4565 47.625 64 53.0815 64 59.8125C64 66.5435 69.4565 72 76.1875 72Z" fill="#EE4661"/>
</svg>
