<svg width="18" height="18" viewBox="0 0 18 18" fill="none" xmlns="http://www.w3.org/2000/svg">
<path d="M17.8233 7.23467H17.0989V7.19868H9.00012V10.7981H14.0844C13.342 12.8948 11.3488 14.3976 9.00012 14.3976C6.01706 14.3976 3.60093 11.9815 3.60093 8.99841C3.60093 6.01536 6.01706 3.59922 9.00012 3.59922C10.3769 3.59922 11.6277 4.11664 12.5816 4.96701L15.1282 2.42039C13.5219 0.922118 11.3713 -0.000244141 9.00012 -0.000244141C4.02836 -0.000244141 0.00146484 4.02665 0.00146484 8.99841C0.00146484 13.9702 4.02836 17.9971 9.00012 17.9971C13.9719 17.9971 17.9988 13.9657 17.9988 8.99841C17.9988 8.3955 17.9358 7.80609 17.8233 7.23467Z" fill="#FAB409"/>
<path d="M1.04053 4.80954L3.99658 6.97821C4.79746 4.99851 6.73218 3.59922 8.99984 3.59922C10.3766 3.59922 11.6274 4.11664 12.5813 4.96701L15.1279 2.42039C13.5217 0.922118 11.371 -0.000244141 8.99984 -0.000244141C5.54435 -0.000244141 2.5478 1.95246 1.04053 4.80954Z" fill="#E73B2F"/>
<path d="M9.00245 18.0004C11.3286 18.0004 13.4388 17.1095 15.036 15.6653L12.251 13.3076C11.3466 13.9915 10.2263 14.4009 9.00245 14.4009C6.6628 14.4009 4.6741 12.9072 3.92721 10.824L0.993652 13.0871C2.48293 16.0027 5.50648 18.0004 9.00245 18.0004Z" fill="#2E9E49"/>
<path d="M17.8246 7.23497H17.1003V7.19897H9.00146V10.7984H14.0857C13.7303 11.8063 13.0824 12.6747 12.2455 13.3046L15.0306 15.6622C14.8326 15.8422 17.9956 13.498 17.9956 8.99871C17.9956 8.3958 17.9326 7.80638 17.8201 7.23497H17.8246Z" fill="#3A7AF2"/>
</svg>
