<svg width="28" height="28" viewBox="0 0 28 28" fill="none" xmlns="http://www.w3.org/2000/svg">
<path d="M15.6199 5C10.6499 5 6.61988 9.03 6.61988 14C6.61988 14.06 6.62988 14.12 6.62988 14.19L4.78988 12.35L3.37988 13.76L7.61988 18L11.8599 13.76L10.4499 12.35L8.62988 14.17C8.62988 14.11 8.61988 14.06 8.61988 14C8.61988 10.14 11.7599 7 15.6199 7C19.4799 7 22.6199 10.14 22.6199 14C22.6199 17.86 19.4799 21 15.6199 21C13.7199 21 11.9999 20.24 10.7399 19.01L9.31988 20.42C10.9399 22.01 13.1699 23 15.6199 23C20.5899 23 24.6199 18.97 24.6199 14C24.6199 9.03 20.5899 5 15.6199 5Z" fill="#EDEDED"/>
</svg>
